<svg height="2500" viewBox="27 70.348 464.718 372.87" width="2500" xmlns="http://www.w3.org/2000/svg"><g fill="none" fill-rule="evenodd"><path d="m27 382c0-29.823 24.175-54 53.993-54h264.014c29.82 0 53.993 24.17 53.993 54 0 29.823-24.175 54-53.993 54h-264.014c-29.82 0-53.993-24.17-53.993-54zm54 26c14.36 0 26-11.64 26-26s-11.64-26-26-26-26 11.64-26 26 11.64 26 26 26zm264 0c14.36 0 26-11.64 26-26s-11.64-26-26-26-26 11.64-26 26 11.64 26 26 26z" fill="#ea4335"/><path d="m87.733 195.084c17.53-24.127 51.298-29.477 75.42-11.95l213.593 155.183c24.125 17.528 29.475 51.29 11.94 75.423-17.529 24.128-51.297 29.478-75.42 11.951l-213.593-155.184c-24.124-17.527-29.474-51.29-11.94-75.423zm28.404 52.775c11.617 8.44 27.877 5.865 36.317-5.752s5.865-27.877-5.752-36.317-27.877-5.865-36.317 5.752-5.865 27.877 5.752 36.317zm213.58 155.175c11.618 8.44 27.877 5.865 36.317-5.752s5.865-27.876-5.752-36.316-27.876-5.865-36.316 5.752-5.865 27.876 5.752 36.316z" fill="#fbbc04"/><path d="m246.733 79.564c28.363-9.216 58.827 6.305 68.041 34.663l81.586 251.093c9.215 28.36-6.302 58.82-34.672 68.037-28.364 9.216-58.828-6.305-68.042-34.663l-81.586-251.093c-9.214-28.36 6.303-58.819 34.673-68.037zm-8.041 59.392c4.437 13.656 19.105 21.13 32.762 16.693 13.657-4.438 21.13-19.106 16.693-32.762-4.437-13.657-19.105-21.13-32.762-16.693s-21.13 19.105-16.693 32.762zm81.58 251.078c4.438 13.657 19.106 21.13 32.762 16.693 13.657-4.437 21.13-19.105 16.693-32.761-4.437-13.657-19.105-21.13-32.761-16.693-13.657 4.437-21.13 19.105-16.693 32.761z" fill="#34a853"/><path d="m448.53 81.325c28.2 9.71 43.188 40.439 33.48 68.632l-85.954 249.63c-9.709 28.195-40.432 43.183-68.637 33.471-28.198-9.71-43.187-40.439-33.48-68.632l85.955-249.63c9.709-28.195 40.432-43.183 68.637-33.47zm-42.163 42.593c-4.675 13.577 2.541 28.374 16.118 33.049s28.374-2.542 33.048-16.12c4.675-13.576-2.541-28.372-16.118-33.047s-28.374 2.541-33.048 16.118zm-85.95 249.617c-4.675 13.577 2.541 28.374 16.118 33.048 13.577 4.675 28.374-2.541 33.048-16.118 4.675-13.577-2.541-28.374-16.118-33.048-13.577-4.675-28.374 2.541-33.048 16.118z" fill="#4285f4"/></g></svg>